<svg width="72" height="72" fill="none" xmlns="http://www.w3.org/2000/svg"><path d="M57.858 1.2H12.944a2.742 2.742 0 00-2.743 2.743V4.8H11.4A3.6 3.6 0 0115 8.4v54l-3.833 4.791a7.19 7.19 0 006.234 3.609c3.352-.246 6-2.573 6-6V58.64a2.241 2.241 0 012.242-2.241H60.6V3.943A2.743 2.743 0 0057.858 1.2z" fill="#FFE100"/><path d="M64.359 56.4H25.642a2.242 2.242 0 00-2.242 2.242V64.8c0 3.428-2.648 5.754-6 6h43.2c3.352-.246 6-2.572 6-6v-6.158A2.241 2.241 0 0064.36 56.4z" fill="#FDCC00"/><path d="M57.857 1.2h-3.6a2.742 2.742 0 012.744 2.743V56.4h3.6V3.943A2.742 2.742 0 0057.856 1.2zM64.359 56.4h-3.6A2.241 2.241 0 0163 58.642V64.8c0 3.427-2.649 5.754-6 6h3.6c3.351-.246 6-2.573 6-6v-6.158a2.241 2.241 0 00-2.242-2.242z" fill="#FFA800"/><path d="M15 62.4l-4.8 6-4.8-6V13.2H15v49.2zM15 13.2H5.4V8.4A3.6 3.6 0 019 4.8h2.4A3.6 3.6 0 0115 8.4v4.8z" fill="#00DA6C"/><path d="M11.4 4.8H9a3.6 3.6 0 00-3.6 3.6v4.8h2.4V8.4a3.6 3.6 0 013.6-3.6z" fill="#fff"/><path d="M5.4 18H15v-4.8H5.4V18zM10.2 58.8l-4.8 3.6 4.8 6 4.8-6-4.8-3.6z" fill="#00DA6C"/><path d="M7.8 62.4V13.2H5.4v49.2l4.8 6 1.2-1.5-3.6-4.5z" fill="#fff"/><path d="M22.765 69.6H60.6c2.79-.207 4.8-2.182 4.8-4.8v-6.158c0-.574-.468-1.042-1.042-1.042H25.643c-.575 0-1.042.468-1.042 1.042V64.8c0 1.885-.673 3.547-1.836 4.8zM17.4 72a1.2 1.2 0 01-.088-2.396c2.878-.212 4.888-2.187 4.888-4.804v-6.158a3.445 3.445 0 013.441-3.442H64.36a3.446 3.446 0 013.442 3.442V64.8c0 3.93-2.925 6.89-7.113 7.197L17.401 72zM29.4 18h-7.2a1.2 1.2 0 010-2.4h7.2a1.2 1.2 0 010 2.4zM51 25.2h-3.6a1.2 1.2 0 010-2.4H51a1.2 1.2 0 010 2.4zM42.6 25.2H22.2a1.2 1.2 0 010-2.4h20.4a1.2 1.2 0 010 2.4zM51 32.4H36.6a1.2 1.2 0 010-2.4H51a1.2 1.2 0 010 2.4zM31.8 32.4h-9.6a1.2 1.2 0 010-2.4h9.6a1.2 1.2 0 010 2.4zM51 39.6H40.2a1.2 1.2 0 010-2.4H51a1.2 1.2 0 010 2.4zM35.4 39.6H22.2a1.2 1.2 0 010-2.4h13.2a1.2 1.2 0 010 2.4zM51 46.8H31.8a1.2 1.2 0 010-2.4H51a1.2 1.2 0 010 2.4zM27 46.8h-4.8a1.2 1.2 0 010-2.4H27a1.2 1.2 0 010 2.4zM36.6 18h-2.4a1.2 1.2 0 010-2.4h2.4a1.2 1.2 0 010 2.4zM15.001 62.4h.012-.012zm-8.4-.421l3.6 4.5 3.6-4.5V14.4h-7.2V61.98zm3.6 7.621c-.365 0-.71-.165-.937-.45l-4.8-6a1.201 1.201 0 01-.263-.75V13.2a1.2 1.2 0 011.2-1.2h9.6a1.2 1.2 0 011.2 1.2v49.2a1.2 1.2 0 01-.263.75l-4.8 6a1.2 1.2 0 01-.937.45z" fill="#000"/><path d="M6.601 12h7.2V8.4c0-1.323-1.076-2.4-2.4-2.4h-2.4a2.402 2.402 0 00-2.4 2.4V12zm8.4 2.4h-9.6a1.2 1.2 0 01-1.2-1.2V8.4c0-2.647 2.153-4.8 4.8-4.8h2.4c2.647 0 4.8 2.153 4.8 4.8v4.8a1.2 1.2 0 01-1.2 1.2zM10.2 72A1.2 1.2 0 019 70.8v-2.4a1.2 1.2 0 012.4 0v2.4a1.2 1.2 0 01-1.2 1.2zM10.2 60A1.2 1.2 0 019 58.8V18a1.2 1.2 0 012.4 0v40.8a1.2 1.2 0 01-1.2 1.2z" fill="#000"/><path d="M6.6 16.8h7.2v-2.4H6.6v2.4zm8.4 2.4H5.4A1.2 1.2 0 014.2 18v-4.8A1.2 1.2 0 015.4 12H15a1.2 1.2 0 011.2 1.2V18a1.2 1.2 0 01-1.2 1.2zM7.111 62.617l3.09 3.863 3.089-3.863L10.2 60.3l-3.089 2.317zm3.09 6.983a1.2 1.2 0 01-.937-.45l-4.8-6a1.2 1.2 0 01.217-1.71l4.799-3.6a1.197 1.197 0 011.44 0l4.801 3.6a1.2 1.2 0 01.216 1.71l-4.8 6c-.227.284-.572.45-.936.45z" fill="#000"/><path d="M17.48 71.997c-3.071 0-5.854-1.611-7.352-4.205a1.2 1.2 0 01.102-1.35l3.57-4.462V8.4c0-1.324-1.076-2.4-2.4-2.4h-1.199c-.663 0-1.2-.536-1.2-1.2v-.856A3.949 3.949 0 0112.945 0h44.913a3.95 3.95 0 013.943 3.944V28.8a1.2 1.2 0 11-2.4 0V3.944c0-.85-.692-1.544-1.543-1.544H12.945c-.734 0-1.35.515-1.505 1.2a4.807 4.807 0 014.76 4.8v54c0 .272-.092.537-.263.75l-3.285 4.107a6.018 6.018 0 004.75 2.343c2.79-.208 4.8-2.183 4.8-4.8v-6.158a3.446 3.446 0 013.44-3.442h33.76V38.4a1.2 1.2 0 112.4 0v18a1.2 1.2 0 01-1.2 1.2h-34.96c-.574 0-1.04.468-1.04 1.042V64.8c0 3.93-2.925 6.89-7.113 7.197h-.01z" fill="#000"/><path d="M61.8 33.6a1.2 1.2 0 11-2.4 0 1.2 1.2 0 012.4 0z" fill="#000"/></svg>