<svg width="72" height="72" fill="none" xmlns="http://www.w3.org/2000/svg"><g clip-path="url(#clip0)"><path d="M18.863 2.98H68.94a1.86 1.86 0 011.86 1.861v37.09a1.86 1.86 0 01-1.86 1.86H18.863a1.86 1.86 0 01-1.86-1.86V4.84a1.86 1.86 0 011.86-1.86z" fill="#C52828"/><path d="M66.983 4.841v37.09a1.854 1.854 0 01-1.86 1.86h-46.26c-.113 0-.226-.013-.336-.036a1.335 1.335 0 01-.312-.084 1.868 1.868 0 01-1.212-1.74V4.84c-.005-.453.162-.89.468-1.224.18-.21.405-.374.66-.48.102-.05.212-.087.324-.108.133-.035.27-.05.408-.048h46.26a1.855 1.855 0 011.86 1.86z" fill="#F44335"/><path d="M66.983 6.474V4.84a1.854 1.854 0 00-1.86-1.86h3.816a1.822 1.822 0 011.393.636l-3.35 2.857z" fill="#D84315"/><path d="M66.983 4.841v1.632L49.59 21.333 45.69 24.67a2.792 2.792 0 01-3.577 0l-3.901-3.337L17.47 3.617c.18-.21.405-.374.66-.48.102-.05.212-.087.324-.108.133-.035.27-.05.408-.048h46.26a1.855 1.855 0 011.86 1.86z" fill="#FF5722"/><path d="M70.14 43.346c-.335.287-.76.444-1.2.444h-3.817a1.855 1.855 0 001.86-1.86v-1.969l3.157 3.385z" fill="#D84315"/><path d="M66.983 39.962v1.968a1.854 1.854 0 01-1.86 1.86h-46.26c-.113 0-.226-.012-.336-.036a1.81 1.81 0 01-.864-.408l20.549-22.013 3.9 3.337a2.792 2.792 0 003.577 0l3.901-3.337 17.393 18.629z" fill="#FF5722"/><path d="M54.968 61.099l-2.845 4.73a5.823 5.823 0 01-2.316 2.196 4.73 4.73 0 01-1.08.432c-4.73 1.296-15.148 1.56-31.844-15.136C.187 36.625.45 26.206 1.747 21.477c.097-.371.238-.73.42-1.068a5.882 5.882 0 012.208-2.329l4.73-2.844a2.357 2.357 0 013.18.72l4.105 6.157 3.445 5.174a2.348 2.348 0 01-.504 3.168l-1.68 1.309-2.569 1.992a2.347 2.347 0 00-.804 1.188 2.292 2.292 0 00.18 1.813c1.248 2.232 2.425 4.873 8.27 10.718 5.846 5.846 8.486 7.022 10.719 8.27a2.4 2.4 0 003-.623l1.993-2.57 1.308-1.68a2.348 2.348 0 013.169-.504l5.341 3.553 5.99 3.997a2.357 2.357 0 01.72 3.181z" fill="#FDD834"/><path d="M52.471 63.595l-2.664 4.43a4.73 4.73 0 01-1.08.432c-4.73 1.296-15.148 1.56-31.844-15.136C.187 36.625.45 26.206 1.747 21.477c.097-.371.238-.73.42-1.068l4.441-2.677a2.357 2.357 0 013.18.72l4.106 6.158 3.445 5.161c.396.584.51 1.315.312 1.993a2.45 2.45 0 01-.816 1.188l-2.557 1.992-1.693 1.309a2.358 2.358 0 00-.624 3c1.249 2.233 2.425 4.873 8.27 10.719 5.846 5.845 8.487 7.022 10.72 8.27a2.359 2.359 0 003-.624l1.308-1.693 1.993-2.556a2.45 2.45 0 011.188-.816 2.364 2.364 0 011.992.312l5.33 3.553 5.99 3.997a2.357 2.357 0 01.72 3.18z" fill="#FFEB3A"/><path d="M68.94 1.802H18.647a3.064 3.064 0 00-3.06 3.061v13.872l-2.3-3.45a3.557 3.557 0 00-4.801-1.08L3.754 17.05a6.942 6.942 0 00-3.171 4.113C-1.143 27.448.138 38.276 16.03 54.171 28.67 66.797 38.093 70.198 44.588 70.198a16.766 16.766 0 004.453-.581 6.954 6.954 0 004.115-3.168l2.84-4.736a3.557 3.557 0 00-1.08-4.796l-11.33-7.552a3.576 3.576 0 00-4.786.777l-3.298 4.24c-.345.454-.97.586-1.47.311l-.627-.346c-2.066-1.125-4.637-2.527-9.83-7.72a85.263 85.263 0 01-1.548-1.59H68.94A3.058 3.058 0 0072 41.99V4.863a3.064 3.064 0 00-3.06-3.06zM32.256 56.455l.61.335a3.536 3.536 0 004.53-.934l3.3-4.24a1.167 1.167 0 011.56-.254l11.33 7.553c.514.343.669 1.03.351 1.56l-2.841 4.737a4.56 4.56 0 01-2.69 2.088c-5.674 1.56-15.604.24-30.675-14.832-15.07-15.072-16.386-25.001-14.83-30.67a4.56 4.56 0 012.088-2.69l4.736-2.842a1.16 1.16 0 011.56.352l7.556 11.33a1.165 1.165 0 01-.253 1.56l-4.242 3.299a3.535 3.535 0 00-.934 4.53l.336.61c1.2 2.201 2.693 4.94 8.131 10.377 5.439 5.438 8.177 6.931 10.377 8.131zM69.6 41.99a.655.655 0 01-.66.649H19.862a30.271 30.271 0 01-4.005-5.839l-.346-.63a1.145 1.145 0 01.31-1.467l4.241-3.3a3.575 3.575 0 00.777-4.786l-2.852-4.28V4.863a.653.653 0 01.66-.66H68.94a.653.653 0 01.66.66V41.99z" fill="#000"/><path d="M66.486 7.59a1.2 1.2 0 00-1.68-.23l-20.06 15.213a1.62 1.62 0 01-1.904 0L22.789 7.36a1.2 1.2 0 10-1.452 1.914l20.056 15.212a4.04 4.04 0 004.801 0L66.256 9.273a1.2 1.2 0 00.23-1.683zM33.55 24.586L21.255 37.753a1.2 1.2 0 001.756 1.638l12.295-13.174a1.2 1.2 0 00-1.756-1.631zM54.116 24.586a1.2 1.2 0 10-1.756 1.637l12.292 13.168a1.2 1.2 0 101.756-1.638L54.116 24.586z" fill="#000"/></g><defs><clipPath id="clip0"><path fill="#fff" d="M0 0h72v72H0z"/></clipPath></defs></svg>